<svg version="1.1" id="Layer_1" xmlns="http://www.w3.org/2000/svg" xmlns:xlink="http://www.w3.org/1999/xlink" x="0px" y="0px"
	 width="100%" viewBox="0 0 279 75" enable-background="new 0 0 279 75" xml:space="preserve">
<path fill="#FDFEFE" opacity="1.000000" stroke="none" 
	d="
M253.000000,76.000000 
	C248.975449,76.000000 244.950912,76.000000 240.649597,75.698441 
	C246.294342,72.625603 246.749222,71.443985 244.962662,63.465546 
	C242.901962,63.463226 240.843658,63.463226 238.677750,63.463226 
	C238.478394,64.924324 238.717209,66.449898 238.073380,67.096123 
	C237.190582,67.982246 235.617737,68.626534 234.379471,68.566933 
	C233.447495,68.522079 231.823044,67.232758 231.797394,66.454849 
	C231.586761,60.066254 231.678543,53.667686 231.678543,47.323761 
	C234.346130,47.323761 236.110596,47.323761 237.988770,47.323761 
	C238.253891,49.327122 238.483643,51.063194 238.782852,53.324188 
	C240.293762,52.440823 241.415176,51.869751 242.447174,51.167309 
	C247.160538,47.959198 247.227951,42.681934 241.948090,41.081562 
	C237.665619,39.783508 232.602600,40.390636 228.010712,41.038422 
	C225.324356,41.417389 224.142441,44.024956 224.288681,47.183792 
	C224.564865,53.149746 224.667999,59.157497 224.272400,65.109955 
	C223.963196,69.762245 224.856247,73.478508 229.000000,76.000000 
	C226.958328,76.000000 224.916672,76.000000 222.183060,75.622955 
	C221.491119,72.651695 221.491119,70.057480 221.491119,68.295120 
	C216.581223,68.524940 212.119263,68.733795 207.181503,68.964928 
	C207.296402,66.645142 207.373138,65.095482 207.457504,63.392136 
	C211.250839,63.392136 214.606247,63.392136 217.978439,63.392136 
	C217.978439,60.884571 217.978439,58.599594 217.978439,55.938850 
	C214.404938,55.938850 211.012360,55.938850 207.477936,55.938850 
	C207.477936,52.828964 207.477936,50.103291 207.477936,46.855003 
	C212.279373,47.070324 216.755341,47.271049 221.283539,47.474117 
	C221.283539,45.524323 221.283539,42.937443 221.283539,40.204544 
	C213.707596,40.204544 206.434418,40.204544 200.142624,40.204544 
	C200.142624,50.157608 200.194366,59.919621 200.094833,69.680092 
	C200.076965,71.433922 199.435349,73.181389 199.025452,75.196106 
	C198.979477,75.640282 198.989746,75.820145 199.000000,76.000000 
	C197.285645,76.000000 195.571289,76.000000 193.580826,75.673172 
	C192.606873,60.193233 191.909042,45.040127 191.164719,28.877802 
	C196.973206,29.752398 201.237305,30.394449 205.607208,31.052435 
	C205.607208,27.447918 205.607208,23.214611 205.607208,18.564335 
	C189.457687,18.564335 173.559067,18.564335 156.948364,18.564335 
	C156.948364,29.033531 156.948364,39.116302 156.948364,49.199078 
	C151.455902,40.024231 146.779648,30.837261 141.991653,21.708893 
	C141.350647,20.486822 140.218689,18.735806 139.187805,18.643738 
	C135.178772,18.285700 131.118805,18.497869 127.694855,18.497869 
	C128.260895,22.091743 129.039948,24.883259 129.081284,27.685658 
	C129.233688,38.014412 129.383499,48.354645 129.047256,58.674690 
	C128.858582,64.465881 127.713943,70.225922 127.000000,76.000000 
	C125.611107,76.000000 124.222221,76.000000 122.227036,75.568893 
	C121.620750,70.877655 121.620750,66.617516 121.620750,61.607506 
	C114.183289,67.203888 106.635025,63.800339 99.206711,64.871574 
	C99.206711,61.619549 99.206711,58.917294 99.206711,56.367836 
	C105.083099,56.367836 110.622917,56.367836 116.329163,56.367836 
	C116.329163,52.251202 116.329163,47.849934 116.329163,43.856499 
	C110.515099,43.856499 104.986107,43.856499 99.295959,43.856499 
	C99.295959,39.212391 99.295959,34.523689 99.295959,29.297743 
	C106.783279,30.685198 114.210838,27.451124 121.180962,32.186764 
	C121.180962,27.389925 121.180962,23.057922 121.180962,18.839146 
	C108.899040,18.839146 97.055855,18.839146 85.903915,18.839146 
	C86.443703,22.038322 87.290962,24.825724 87.321564,27.622061 
	C87.465637,40.786404 87.504639,53.955177 87.284943,67.117432 
	C87.241226,69.736534 85.901382,72.333992 85.083694,75.200706 
	C85.005440,75.639984 85.002716,75.819992 85.000000,76.000000 
	C84.250000,76.000000 83.500000,76.000000 82.459717,75.602280 
	C81.398331,72.598045 80.234184,70.033257 79.951988,67.374840 
	C79.567574,63.753700 80.078606,60.042831 79.779602,56.405460 
	C79.572594,53.887157 78.646324,51.427975 78.104652,49.202141 
	C78.691002,47.005676 79.618385,44.848598 79.779381,42.635769 
	C80.056450,38.827526 79.856331,34.984543 79.856064,31.156143 
	C79.855598,24.524921 74.430008,18.521088 67.778038,18.472414 
	C48.313492,18.330000 28.847151,18.427736 9.381550,18.457403 
	C8.754696,18.458357 8.128274,18.742817 7.430311,18.912457 
	C7.430311,23.281364 7.430311,27.498957 7.430311,30.871986 
	C11.952174,30.323315 16.298780,29.795908 21.543013,29.159584 
	C19.655514,45.511589 23.777821,60.927547 19.000000,76.000000 
	C13.005790,76.000000 7.011580,76.000000 1.013027,76.000000 
	C1.008684,51.029915 1.008684,26.059828 1.008684,1.044870 
	C93.880333,1.044870 186.760696,1.044870 279.820526,1.044870 
	C279.820526,25.998983 279.820526,50.999359 279.820526,76.000000 
	C275.269653,76.000000 270.607483,76.000000 265.588379,75.663177 
	C268.967560,73.822395 270.168335,71.160881 269.954285,67.103996 
	C269.595184,60.298241 270.046051,53.450871 269.726929,46.641117 
	C269.643372,44.858280 268.144592,41.780537 267.010712,41.642723 
	C261.981659,41.031479 256.819336,40.963631 251.776337,41.444740 
	C250.645401,41.552639 249.059814,44.619850 248.958725,46.397205 
	C248.609619,52.536236 249.004059,58.714363 248.763229,64.863808 
	C248.589844,69.290993 248.675018,73.388847 253.000000,76.000000 
M255.114212,18.252480 
	C255.575500,14.256143 256.036804,10.259805 256.423126,6.912951 
	C248.681992,8.876157 241.485565,10.405715 234.489197,12.579285 
	C229.813522,14.031891 225.075699,15.865587 221.000214,18.507568 
	C216.818268,21.218569 214.854187,25.611774 216.452103,31.179647 
	C221.794388,29.613813 226.876862,28.124132 231.959335,26.634451 
	C232.117188,27.103449 232.275055,27.572447 232.432922,28.041447 
	C227.811417,29.886728 223.189911,31.732012 218.369980,33.656528 
	C230.008865,39.805176 247.611145,32.610325 255.114212,18.252480 
z"/>
<path fill="#08AA9F" opacity="1.000000" stroke="none" 
	d="
M127.460648,76.000000 
	C127.713943,70.225922 128.858582,64.465881 129.047256,58.674690 
	C129.383499,48.354645 129.233688,38.014412 129.081284,27.685658 
	C129.039948,24.883259 128.260895,22.091743 127.694855,18.497869 
	C131.118805,18.497869 135.178772,18.285700 139.187805,18.643738 
	C140.218689,18.735806 141.350647,20.486822 141.991653,21.708893 
	C146.779648,30.837261 151.455902,40.024231 156.948364,49.199078 
	C156.948364,39.116302 156.948364,29.033531 156.948364,18.564335 
	C173.559067,18.564335 189.457687,18.564335 205.607208,18.564335 
	C205.607208,23.214611 205.607208,27.447918 205.607208,31.052435 
	C201.237305,30.394449 196.973206,29.752398 191.164719,28.877802 
	C191.909042,45.040127 192.606873,60.193233 193.152359,75.673172 
	C188.310745,76.000000 183.621490,76.000000 178.503754,75.624908 
	C180.808609,72.214516 181.081390,68.589600 180.890503,64.714394 
	C180.678406,60.408237 180.841965,56.083584 180.841965,51.766983 
	C180.841965,44.509129 180.841965,37.251278 180.841965,29.567337 
	C177.913559,29.567337 175.611664,29.606936 173.311630,29.558113 
	C169.808868,29.483759 167.965561,31.105450 168.173355,34.656799 
	C168.979309,48.429489 166.256683,62.358475 170.000000,76.000000 
	C165.975449,76.000000 161.950912,76.000000 157.420593,75.641953 
	C151.728317,65.140869 146.541809,54.997826 141.355301,44.854778 
	C140.398605,53.679813 140.480042,62.084488 140.335007,70.485252 
	C140.303162,72.330635 139.466202,74.162117 139.000000,76.000000 
	C135.307098,76.000000 131.614182,76.000000 127.460648,76.000000 
z"/>
<path fill="#07A99F" opacity="1.000000" stroke="none" 
	d="
M19.466118,76.000000 
	C23.777821,60.927547 19.655514,45.511589 21.543013,29.159584 
	C16.298780,29.795908 11.952174,30.323315 7.430311,30.871986 
	C7.430311,27.498957 7.430311,23.281364 7.430311,18.912457 
	C8.128274,18.742817 8.754696,18.458357 9.381550,18.457403 
	C28.847151,18.427736 48.313492,18.330000 67.778038,18.472414 
	C74.430008,18.521088 79.855598,24.524921 79.856064,31.156143 
	C79.856331,34.984543 80.056450,38.827526 79.779381,42.635769 
	C79.618385,44.848598 78.691002,47.005676 78.104652,49.202141 
	C78.646324,51.427975 79.572594,53.887157 79.779602,56.405460 
	C80.078606,60.042831 79.567574,63.753700 79.951988,67.374840 
	C80.234184,70.033257 81.398331,72.598045 82.084717,75.602280 
	C77.975456,76.000000 73.950912,76.000000 69.407059,75.534729 
	C68.871010,70.099007 69.013268,65.119400 68.728165,60.164379 
	C68.654892,58.890831 67.426941,56.864788 66.396065,56.626465 
	C63.817299,56.030293 57.157459,63.003857 56.971279,65.831039 
	C56.747631,69.227287 56.332321,72.610909 56.000000,76.000000 
	C52.307091,76.000000 48.614182,76.000000 44.381348,75.675140 
	C44.508213,73.212402 45.714008,71.083916 45.751404,68.935097 
	C45.945404,57.785717 45.784489,46.630688 45.874352,35.478657 
	C45.902554,31.978344 43.982662,30.157179 40.968231,29.688416 
	C38.258076,29.266970 35.430656,29.599586 31.272043,29.599586 
	C32.206844,45.499855 33.103420,60.749928 34.000000,76.000000 
	C29.310745,76.000000 24.621489,76.000000 19.466118,76.000000 
M58.854420,29.445105 
	C58.239975,30.051039 57.107658,30.643972 57.092068,31.264940 
	C56.953018,36.803932 57.011078,42.347870 57.011078,48.906918 
	C60.422989,46.541004 62.796047,44.475513 65.517525,43.098740 
	C70.639801,40.507412 69.029030,35.920719 68.634094,32.178970 
	C68.215317,28.211372 64.314819,29.729256 61.721821,29.428398 
	C61.067921,29.352528 60.397408,29.419823 58.854420,29.445105 
z"/>
<path fill="#0FACA2" opacity="1.000000" stroke="none" 
	d="
M85.159218,74.941437 
	C85.901382,72.333992 87.241226,69.736534 87.284943,67.117432 
	C87.504639,53.955177 87.465637,40.786404 87.321564,27.622061 
	C87.290962,24.825724 86.443703,22.038322 85.903915,18.839146 
	C97.055855,18.839146 108.899040,18.839146 121.180962,18.839146 
	C121.180962,23.057922 121.180962,27.389925 121.180962,32.186764 
	C114.210838,27.451124 106.783279,30.685198 99.295959,29.297743 
	C99.295959,34.523689 99.295959,39.212391 99.295959,43.856499 
	C104.986107,43.856499 110.515099,43.856499 116.329163,43.856499 
	C116.329163,47.849934 116.329163,52.251202 116.329163,56.367836 
	C110.622917,56.367836 105.083099,56.367836 99.206711,56.367836 
	C99.206711,58.917294 99.206711,61.619549 99.206711,64.871574 
	C106.635025,63.800339 114.183289,67.203888 121.620750,61.607506 
	C121.620750,66.617516 121.620750,70.877655 121.810379,75.568893 
	C121.555557,76.000000 121.111107,76.000000 120.038765,75.706223 
	C107.993652,75.255432 96.576431,75.098434 85.159218,74.941437 
z"/>
<path fill="#F6FCFB" opacity="1.000000" stroke="none" 
	d="
M34.454109,76.000000 
	C33.103420,60.749928 32.206844,45.499855 31.272043,29.599586 
	C35.430656,29.599586 38.258076,29.266970 40.968231,29.688416 
	C43.982662,30.157179 45.902554,31.978344 45.874352,35.478657 
	C45.784489,46.630688 45.945404,57.785717 45.751404,68.935097 
	C45.714008,71.083916 44.508213,73.212402 43.920708,75.675140 
	C40.969406,76.000000 37.938812,76.000000 34.454109,76.000000 
z"/>
<path fill="#F6FCFB" opacity="1.000000" stroke="none" 
	d="
M170.444168,76.000000 
	C166.256683,62.358475 168.979309,48.429489 168.173355,34.656799 
	C167.965561,31.105450 169.808868,29.483759 173.311630,29.558113 
	C175.611664,29.606936 177.913559,29.567337 180.841965,29.567337 
	C180.841965,37.251278 180.841965,44.509129 180.841965,51.766983 
	C180.841965,56.083584 180.678406,60.408237 180.890503,64.714394 
	C181.081390,68.589600 180.808609,72.214516 178.037643,75.624908 
	C175.629440,76.000000 173.258896,76.000000 170.444168,76.000000 
z"/>
<path fill="#07A99F" opacity="1.000000" stroke="none" 
	d="
M253.460632,76.000000 
	C248.675018,73.388847 248.589844,69.290993 248.763229,64.863808 
	C249.004059,58.714363 248.609619,52.536236 248.958725,46.397205 
	C249.059814,44.619850 250.645401,41.552639 251.776337,41.444740 
	C256.819336,40.963631 261.981659,41.031479 267.010712,41.642723 
	C268.144592,41.780537 269.643372,44.858280 269.726929,46.641117 
	C270.046051,53.450871 269.595184,60.298241 269.954285,67.103996 
	C270.168335,71.160881 268.967560,73.822395 265.115723,75.663177 
	C261.307098,76.000000 257.614197,76.000000 253.460632,76.000000 
M259.370941,46.994164 
	C256.878326,46.693348 255.714432,47.598503 255.794144,50.304688 
	C255.941254,55.299301 255.920258,60.303383 255.800278,65.299469 
	C255.738892,67.855339 256.780304,69.423561 259.239471,68.707161 
	C260.645966,68.297409 262.584045,66.603172 262.682770,65.360176 
	C263.077332,60.392597 263.003418,55.366432 262.726959,50.382790 
	C262.662140,49.214489 261.126984,48.127750 259.370941,46.994164 
z"/>
<path fill="#13AEA4" opacity="1.000000" stroke="none" 
	d="
M229.458069,76.000000 
	C224.856247,73.478508 223.963196,69.762245 224.272400,65.109955 
	C224.667999,59.157497 224.564865,53.149746 224.288681,47.183792 
	C224.142441,44.024956 225.324356,41.417389 228.010712,41.038422 
	C232.602600,40.390636 237.665619,39.783508 241.948090,41.081562 
	C247.227951,42.681934 247.160538,47.959198 242.447174,51.167309 
	C241.415176,51.869751 240.293762,52.440823 238.782852,53.324188 
	C238.483643,51.063194 238.253891,49.327122 237.988770,47.323761 
	C236.110596,47.323761 234.346130,47.323761 231.678543,47.323761 
	C231.678543,53.667686 231.586761,60.066254 231.797394,66.454849 
	C231.823044,67.232758 233.447495,68.522079 234.379471,68.566933 
	C235.617737,68.626534 237.190582,67.982246 238.073380,67.096123 
	C238.717209,66.449898 238.478394,64.924324 238.677750,63.463226 
	C240.843658,63.463226 242.901962,63.463226 244.962662,63.465546 
	C246.749222,71.443985 246.294342,72.625603 240.186417,75.698441 
	C236.638718,76.000000 233.277420,76.000000 229.458069,76.000000 
z"/>
<path fill="#08AA9F" opacity="1.000000" stroke="none" 
	d="
M199.081726,74.931793 
	C199.435349,73.181389 200.076965,71.433922 200.094833,69.680092 
	C200.194366,59.919621 200.142624,50.157608 200.142624,40.204544 
	C206.434418,40.204544 213.707596,40.204544 221.283539,40.204544 
	C221.283539,42.937443 221.283539,45.524323 221.283539,47.474117 
	C216.755341,47.271049 212.279373,47.070324 207.477936,46.855003 
	C207.477936,50.103291 207.477936,52.828964 207.477936,55.938850 
	C211.012360,55.938850 214.404938,55.938850 217.978439,55.938850 
	C217.978439,58.599594 217.978439,60.884571 217.978439,63.392136 
	C214.606247,63.392136 211.250839,63.392136 207.457504,63.392136 
	C207.373138,65.095482 207.296402,66.645142 207.181503,68.964928 
	C212.119263,68.733795 216.581223,68.524940 221.491119,68.295120 
	C221.491119,70.057480 221.491119,72.651695 221.745560,75.622955 
	C222.000000,76.000000 221.500000,76.000000 221.020493,75.644279 
	C213.387894,75.169640 206.234818,75.050720 199.081726,74.931793 
z"/>
<path fill="#EDF9F8" opacity="1.000000" stroke="none" 
	d="
M139.467941,76.000000 
	C139.466202,74.162117 140.303162,72.330635 140.335007,70.485252 
	C140.480042,62.084488 140.398605,53.679813 141.355301,44.854778 
	C146.541809,54.997826 151.728317,65.140869 156.957413,75.641953 
	C151.311966,76.000000 145.623917,76.000000 139.467941,76.000000 
z"/>
<path fill="#F6FCFB" opacity="1.000000" stroke="none" 
	d="
M56.463184,76.000000 
	C56.332321,72.610909 56.747631,69.227287 56.971279,65.831039 
	C57.157459,63.003857 63.817299,56.030293 66.396065,56.626465 
	C67.426941,56.864788 68.654892,58.890831 68.728165,60.164379 
	C69.013268,65.119400 68.871010,70.099007 68.943878,75.534729 
	C64.975456,76.000000 60.950912,76.000000 56.463184,76.000000 
z"/>
<path fill="#52C3BB" opacity="1.000000" stroke="none" 
	d="
M85.083694,75.200706 
	C96.576431,75.098434 107.993652,75.255432 119.705429,75.706223 
	C108.645775,76.000000 97.291542,76.000000 85.468658,76.000000 
	C85.002716,75.819992 85.005440,75.639984 85.083694,75.200706 
z"/>
<path fill="#81D3CE" opacity="1.000000" stroke="none" 
	d="
M199.025452,75.196106 
	C206.234818,75.050720 213.387894,75.169640 220.770493,75.644279 
	C213.979050,76.000000 206.958099,76.000000 199.468567,76.000000 
	C198.989746,75.820145 198.979477,75.640282 199.025452,75.196106 
z"/>
<path fill="#09AA9F" opacity="1.000000" stroke="none" 
	d="
M254.999695,18.636196 
	C247.611145,32.610325 230.008865,39.805176 218.369980,33.656528 
	C223.189911,31.732012 227.811417,29.886728 232.432922,28.041447 
	C232.275055,27.572447 232.117188,27.103449 231.959335,26.634451 
	C226.876862,28.124132 221.794388,29.613813 216.452103,31.179647 
	C214.854187,25.611774 216.818268,21.218569 221.000214,18.507568 
	C225.075699,15.865587 229.813522,14.031891 234.489197,12.579285 
	C241.485565,10.405715 248.681992,8.876157 256.423126,6.912951 
	C256.036804,10.259805 255.575500,14.256143 254.999695,18.636196 
M233.832047,25.682915 
	C233.602081,26.143799 233.372101,26.604685 233.142120,27.065565 
	C233.845123,26.807560 234.548141,26.549553 235.895660,26.142834 
	C236.166000,25.808714 236.436340,25.474594 236.706680,25.140474 
	C235.982544,25.238493 235.258392,25.336514 233.832047,25.682915 
z"/>
<path fill="#F2FAFA" opacity="1.000000" stroke="none" 
	d="
M59.294476,29.433216 
	C60.397408,29.419823 61.067921,29.352528 61.721821,29.428398 
	C64.314819,29.729256 68.215317,28.211372 68.634094,32.178970 
	C69.029030,35.920719 70.639801,40.507412 65.517525,43.098740 
	C62.796047,44.475513 60.422989,46.541004 57.011078,48.906918 
	C57.011078,42.347870 56.953018,36.803932 57.092068,31.264940 
	C57.107658,30.643972 58.239975,30.051039 59.294476,29.433216 
z"/>
<path fill="#F4FBFA" opacity="1.000000" stroke="none" 
	d="
M259.819611,46.998825 
	C261.126984,48.127750 262.662140,49.214489 262.726959,50.382790 
	C263.003418,55.366432 263.077332,60.392597 262.682770,65.360176 
	C262.584045,66.603172 260.645966,68.297409 259.239471,68.707161 
	C256.780304,69.423561 255.738892,67.855339 255.800278,65.299469 
	C255.920258,60.303383 255.941254,55.299301 255.794144,50.304688 
	C255.714432,47.598503 256.878326,46.693348 259.819611,46.998825 
z"/>
<path fill="#FDFEFE" opacity="1.000000" stroke="none" 
	d="
M235.251144,26.291546 
	C234.548141,26.549553 233.845123,26.807560 233.142120,27.065567 
	C233.372101,26.604685 233.602081,26.143799 234.357971,25.776653 
	C235.006332,26.010778 235.128738,26.151163 235.251144,26.291546 
z"/>
<path fill="#FDFEFE" opacity="1.000000" stroke="none" 
	d="
M234.709076,25.652462 
	C235.258392,25.336514 235.982544,25.238493 236.706680,25.140476 
	C236.436340,25.474594 236.166000,25.808714 235.573395,26.217190 
	C235.128738,26.151163 235.006332,26.010778 234.709076,25.652462 
z"/>
</svg>